<svg height="800" viewBox="0 0 24 24" width="800" xmlns="http://www.w3.org/2000/svg"><path d="m4 18c1.1045695 0 2 .8954305 2 2s-.8954305 2-2 2-2-.8954305-2-2 .8954305-2 2-2z" fill="black" fill-rule="evenodd" /><path d="m4 19.5c-.27614237 0-.5.2238576-.5.5s.22385763.5.5.5.5-.2238576.5-.5-.22385763-.5-.5-.5z" fill="white"/><path fill="black" d="m9.5 15c1.3807119 0 2.5 1.1192881 2.5 2.5s-1.1192881 2.5-2.5 2.5c-1.38071187 0-2.5-1.1192881-2.5-2.5s1.11928813-2.5 2.5-2.5z"/><path fill="black" d="m11.8235294 2c2.6592222 0 4.8838018 1.92259542 5.3302255 4.47059089l.0815392-.00000265c2.0791897 0 3.7647059 1.68551623 3.7647059 3.76470586 0 2.0791897-1.6855162 3.7647059-3.7647059 3.7647059h-10.82352939c-2.07918965 0-3.76470589-1.6855162-3.76470589-3.7647059 0-2.07918963 1.68551624-3.76470586 3.76472883-3.76470586l.08151627.00000265c.4464237-2.54799547 2.67100326-4.47059089 5.33022548-4.47059089z"/><path fill="white" d="m9.5 16.5c-.55228475 0-1 .4477153-1 1s.44771525 1 1 1c.5522847 0 1-.4477153 1-1s-.4477153-1-1-1z"/><path fill="white" d="m11.8291192 3.49762123c-2.09615957 0-3.82054647 1.64509758-3.92319413 3.72834595-.01817547.36887366-.3227742.65862192-.69236565.65860991l-.69883417-.0000227c-1.27611249 0-2.31060606 1.0337352-2.31060606 2.30891221 0 1.275177 1.03449357 2.3089122 2.31060606 2.3089122h10.62878785c1.2761125 0 2.3106061-1.0337352 2.3106061-2.3089122 0-1.27517701-1.0344936-2.30891221-2.3105835-2.30891221l-.6988567.0000227c-.3695915.00001201-.6741902-.28973625-.6923657-.65860991-.1026477-2.08324837-1.8270345-3.72834595-3.9231941-3.72834595z"/></svg>